<?xml version="1.0" encoding="utf-8"?>
<!-- Generator: Adobe Illustrator 23.0.1, SVG Export Plug-In . SVG Version: 6.00 Build 0)  -->
<svg version="1.1" id="YouTube_Icon" xmlns="http://www.w3.org/2000/svg" xmlns:xlink="http://www.w3.org/1999/xlink" x="0px"
	 y="0px" viewBox="0 0 481 338.3" style="enable-background:new 0 0 481 338.3;" xml:space="preserve">
<style type="text/css">
	.st0{fill:#FFFFFF;}
	.st1{fill:#5A5A5A;}
</style>
<title>logo-youtube</title>
<path id="Triangle" class="st0" d="M190.8,231.6l130-67.3l-130-67.8L190.8,231.6L190.8,231.6z"/>
<g id="Lozenge">
	<path class="st1" d="M476.2,73c0,0-4.7-33.2-19.1-47.8C438.8,6.1,418.3,6,408.9,4.8C341.6,0,240.6,0,240.6,0h-0.2
		c0,0-101,0-168.3,4.9C62.7,6,42.2,6.1,23.9,25.2C9.5,39.8,4.8,73,4.8,73S0,111.9,0,150.8v36.5c0,38.9,4.8,77.8,4.8,77.8
		s4.7,33.2,19.1,47.7c18.3,19.2,42.3,18.5,53,20.6c38.5,3.7,163.5,4.8,163.5,4.8s101.1-0.2,168.4-5c9.4-1.1,29.9-1.2,48.2-20.4
		c14.4-14.6,19.1-47.7,19.1-47.7s4.8-38.9,4.8-77.9v-36.5C481,111.9,476.2,73,476.2,73z M190.8,231.6V96.4l130,67.8L190.8,231.6z"/>
</g>
</svg>
