<?xml version="1.0" encoding="utf-8"?>
<!-- Generator: Adobe Illustrator 23.0.1, SVG Export Plug-In . SVG Version: 6.00 Build 0)  -->
<svg version="1.1" id="Layer_1" xmlns="http://www.w3.org/2000/svg" xmlns:xlink="http://www.w3.org/1999/xlink" x="0px" y="0px"
	 viewBox="0 0 273.4 222.2" style="enable-background:new 0 0 273.4 222.2;" xml:space="preserve">
<style type="text/css">
	.st0{fill:#5A5A5A;}
</style>
<title>logo-twitter</title>
<path class="st0" d="M273.4,26.3c-10.2,4.5-21.1,7.5-32.2,8.8c11.7-7,20.5-18,24.7-31c-11,6.5-23.1,11.1-35.6,13.6
	C209-4.8,173.4-5.9,150.9,15.4c-14.5,13.7-20.7,34-16.2,53.5C89.6,66.6,47.5,45.3,19,10.3C4.1,35.9,11.7,68.7,36.4,85.1
	c-8.9-0.3-17.6-2.7-25.4-7c0,0.2,0,0.5,0,0.7c0,26.7,18.8,49.7,45,55c-8.3,2.3-16.9,2.6-25.3,1c7.3,22.9,28.4,38.5,52.4,39
	c-19.9,15.6-44.4,24-69.7,24c-4.5,0-8.9-0.3-13.4-0.8c25.7,16.5,55.5,25.2,86,25.2c103.2,0,159.6-85.5,159.6-159.6
	c0-2.4-0.1-4.9-0.2-7.3C256.4,47.5,265.9,37.6,273.4,26.3z"/>
</svg>
